<svg xmlns="http://www.w3.org/2000/svg" width="625.134" height="502.109" viewBox="0 0 625.134 502.109">
  <g id="Placement" transform="translate(-647.396 -289.329)">
    <path id="Logo" d="M45.881,43.7A19.849,19.849,0,1,1,30.475,20.234,19.85,19.85,0,0,1,45.881,43.7M39.97,65.3l7.392,6.218,36.106-43.07-7.392-6.218Z" transform="translate(914.97 554.664)"/>
    <g id="Crown">
      <path id="Top" data-name="Path 1" d="M741.909,358.851l15.7,83.743,57.9-9.159,48.741-137.718,42.526-3.925,40.236-1.963h35l32.712,1.963,35.329,3.925h5.234l44.161,134.119,60.844,12.758,16.029-83.416,57.573,4.253s20.609,13.412,24.861,37.292-23.88,170.43-18.319,173.7c2.162,1.272-20.526-18.893-95.937-33.47-45.065-8.711-124.03-14.7-185.923-14.949-46.935-.189-124.457,3.649-179.383,14.949-62.661,12.891-99.969,33.47-99.969,33.47l-21.7-179.749,6-11.033,7.162-9.485,8.517-6.968,8.71-5.807Z" fill="none" stroke="#707070" stroke-width="1"/>
      <path id="JewelRight" data-name="Path 2" d="M1249.076,604.363h5.956v6.1l5.211,13.1,11.763,19.505-8.934,51.964s-18.612,23.079-23.972,23.972-6.7,0-6.7,0Z" fill="none" stroke="#707070" stroke-width="1"/>
      <path id="JewelLeft" data-name="Path 3" d="M665.276,604.11l19.163,115.944s-6.581-.193-7.162-1.548-19.743-17.808-21.1-22.647-10.646-51.294-7.742-54.778,14.324-25.744,15.1-29.034S665.276,604.11,665.276,604.11Z" fill="none" stroke="#707070" stroke-width="1"/>
      <path id="Middle" data-name="Path 4" d="M663.727,589.592l23.228,144.979s2.431-13.121,45.552-26.942,48.65-13.268,110.567-19.9S992.892,683.3,992.892,683.3a939.238,939.238,0,0,1,130.355,9.652c69.683,10.259,104.524,39.68,104.524,39.68s2.323.968,3.1-6.388,20.9-137.236,20.711-137.43,2.516-5.613-12.194-15.292-82.264-40.648-201.306-44.519-168.4-2.71-249.89,10.259-115.364,42-120.2,42.584S663.727,589.592,663.727,589.592Z" fill="none" stroke="#707070" stroke-width="1"/>
      <path id="BottomOuter" data-name="Path 5" d="M686.956,733.6c-.581,5.613,3.871,23.421,52.843,34.841S846.065,788.576,902,790.125s134.139,1.161,192.6-6.581,109.944-21.485,122.526-31.938,12.582-16.066,11.227-18.195-43.939-33.874-107.234-40.648-75.683-8.9-129.881-9.485-132.978,2.71-132.978,2.71-66.779,6.388-84.587,10.259-63.682,19.937-63.682,19.937S687.536,727.991,686.956,733.6Z" fill="none" stroke="#707070" stroke-width="1"/>
      <path id="BottomInner" data-name="Path 6" d="M738.641,736.351s-7.2,24.534,140.335,32.712,242.07-8.505,242.07-8.505,46.778-6.542,53.975-17.665-10.141-16.683-16.029-17.665-39.255-16.356-133.466-18.646-187.768,1.308-230.948,8.832-44.161,11.776-50.05,15.7S738.641,736.351,738.641,736.351Z" fill="none" stroke="#707070" stroke-width="1"/>
    </g>
  </g>
</svg>
